<svg xmlns="http://www.w3.org/2000/svg" xmlns:xlink="http://www.w3.org/1999/xlink" width="500" zoomAndPan="magnify" viewBox="0 0 375 374.999991" height="500" preserveAspectRatio="xMidYMid meet" version="1.0"><defs><clipPath id="e0de8542b6"><path d="M 93.207031 37.5 L 281.613281 37.5 L 281.613281 283 L 93.207031 283 Z M 93.207031 37.5 " clip-rule="nonzero"/></clipPath><clipPath id="a7c7cf72f7"><path d="M 137.703125 98.660156 L 245.367188 98.660156 L 245.367188 207.492188 L 137.703125 207.492188 Z M 137.703125 98.660156 " clip-rule="nonzero"/></clipPath><clipPath id="3b8dc40f15"><path d="M 155.042969 121.710938 L 215.894531 121.710938 L 215.894531 219.425781 L 155.042969 219.425781 Z M 155.042969 121.710938 " clip-rule="nonzero"/></clipPath></defs><g clip-path="url(#e0de8542b6)"><path fill="#231f20" d="M 187.457031 47.496094 C 141.089844 47.496094 103.367188 85.238281 103.367188 131.628906 C 103.367188 151.371094 111.484375 169.230469 119.417969 184.101562 C 122.261719 189.410156 125.339844 194.683594 128.570312 199.765625 C 129.714844 201.554688 131 203.363281 132.363281 205.28125 C 139.011719 214.625 147.289062 226.25 147.789062 248.746094 L 147.789062 257.394531 C 147.789062 265.480469 154.363281 272.058594 162.449219 272.058594 L 212.46875 272.058594 C 220.554688 272.058594 227.128906 265.480469 227.128906 257.394531 L 227.128906 247.691406 L 227.132812 247.519531 C 227.894531 225.839844 235.996094 214.453125 242.507812 205.304688 C 243.875 203.378906 245.164062 201.5625 246.316406 199.761719 C 254.394531 187.085938 260.03125 176.578125 264.050781 166.699219 C 266.832031 159.847656 268.792969 153.441406 270.042969 147.128906 C 271.042969 142.148438 271.546875 136.9375 271.546875 131.628906 C 271.546875 85.238281 233.820312 47.496094 187.457031 47.496094 Z M 212.46875 282.101562 L 162.449219 282.101562 C 148.828125 282.101562 137.75 271.023438 137.75 257.394531 L 137.75 248.859375 C 137.320312 229.5625 130.644531 220.175781 124.1875 211.105469 C 122.75 209.082031 121.390625 207.171875 120.105469 205.164062 C 116.734375 199.863281 113.523438 194.371094 110.566406 188.835938 C 102.042969 172.867188 93.328125 153.585938 93.328125 131.628906 C 93.328125 79.695312 135.558594 37.453125 187.457031 37.453125 C 239.359375 37.453125 281.582031 79.695312 281.582031 131.628906 C 281.582031 137.601562 281.011719 143.472656 279.886719 149.089844 C 278.511719 156.027344 276.375 163.03125 273.347656 170.484375 C 269.09375 180.945312 263.191406 191.960938 254.777344 205.160156 C 253.492188 207.179688 252.128906 209.097656 250.683594 211.125 C 244.371094 220 237.835938 229.179688 237.167969 247.785156 L 237.167969 257.394531 C 237.167969 271.023438 226.089844 282.101562 212.46875 282.101562 " fill-opacity="1" fill-rule="nonzero"/></g><path fill="#231f20" d="M 155.238281 332.480469 L 174.527344 341.792969 C 181.671875 345.238281 193.246094 345.238281 200.386719 341.792969 L 219.679688 332.480469 L 155.238281 332.480469 " fill-opacity="1" fill-rule="nonzero"/><path fill="#231f20" d="M 223.613281 329.179688 C 223.613281 331.953125 221.371094 334.207031 218.585938 334.207031 L 156.328125 334.207031 C 153.550781 334.207031 151.300781 331.953125 151.300781 329.179688 C 151.300781 326.394531 153.550781 324.148438 156.328125 324.148438 L 218.585938 324.148438 C 221.371094 324.148438 223.613281 326.394531 223.613281 329.179688 " fill-opacity="1" fill-rule="nonzero"/><path fill="#231f20" d="M 227.785156 314.703125 C 227.785156 317.484375 225.53125 319.734375 222.757812 319.734375 L 152.160156 319.734375 C 149.382812 319.734375 147.128906 317.484375 147.128906 314.703125 C 147.128906 311.925781 149.382812 309.675781 152.160156 309.675781 L 222.757812 309.675781 C 225.53125 309.675781 227.785156 311.925781 227.785156 314.703125 " fill-opacity="1" fill-rule="nonzero"/><path fill="#231f20" d="M 227.785156 300.230469 C 227.785156 303.011719 225.53125 305.269531 222.757812 305.269531 L 152.160156 305.269531 C 149.382812 305.269531 147.128906 303.011719 147.128906 300.230469 C 147.128906 297.457031 149.382812 295.203125 152.160156 295.203125 L 222.757812 295.203125 C 225.53125 295.203125 227.785156 297.457031 227.785156 300.230469 " fill-opacity="1" fill-rule="nonzero"/><path fill="#231f20" d="M 232.164062 285.765625 C 232.164062 288.539062 229.910156 290.789062 227.132812 290.789062 L 147.777344 290.789062 C 145.007812 290.789062 142.753906 288.539062 142.753906 285.765625 C 142.753906 282.992188 145.007812 280.734375 147.777344 280.734375 L 227.132812 280.734375 C 229.910156 280.734375 232.164062 282.992188 232.164062 285.765625 " fill-opacity="1" fill-rule="nonzero"/><g clip-path="url(#a7c7cf72f7)"><path fill="#010101" d="M 240.195312 140.480469 C 240.195312 115.097656 220.667969 98.660156 190.371094 98.660156 L 137.835938 98.660156 L 137.835938 207.492188 L 178.714844 207.492188 L 178.714844 181.734375 L 183.25 181.734375 L 200.699219 207.492188 L 245.234375 207.492188 L 222.242188 173.734375 C 233.898438 166.554688 240.195312 154.902344 240.195312 140.480469 Z M 178.714844 131.601562 L 188.164062 131.601562 C 192.828125 131.601562 199.0625 132.542969 199.0625 140.480469 C 199.0625 148.414062 192.828125 149.359375 188.164062 149.359375 L 178.714844 149.359375 Z M 178.714844 131.601562 " fill-opacity="1" fill-rule="nonzero"/></g><g clip-path="url(#3b8dc40f15)"><path fill="#ffffff" d="M 178.363281 121.699219 L 215.730469 121.699219 L 185.492188 165.691406 L 215.730469 166.828125 L 171.230469 219.390625 L 177.792969 178.832031 L 155.257812 180.542969 L 178.363281 121.699219 " fill-opacity="1" fill-rule="nonzero"/></g></svg>