<svg xmlns="http://www.w3.org/2000/svg" xmlns:xlink="http://www.w3.org/1999/xlink" width="550" zoomAndPan="magnify" viewBox="0 0 412.5 165.000002" height="220" preserveAspectRatio="xMidYMid meet" version="1.0"><defs><g/><clipPath id="9e12621f7f"><path d="M 17.414062 25.210938 L 94.324219 25.210938 L 94.324219 126 L 17.414062 126 Z M 17.414062 25.210938 " clip-rule="nonzero"/></clipPath><clipPath id="270d0d10b0"><path d="M 42 145 L 70 145 L 70 150.84375 L 42 150.84375 Z M 42 145 " clip-rule="nonzero"/></clipPath><clipPath id="f071d7a503"><path d="M 35.578125 50.175781 L 79.527344 50.175781 L 79.527344 94.601562 L 35.578125 94.601562 Z M 35.578125 50.175781 " clip-rule="nonzero"/></clipPath><clipPath id="0b7932c48d"><path d="M 42.65625 59.585938 L 67.496094 59.585938 L 67.496094 99.472656 L 42.65625 99.472656 Z M 42.65625 59.585938 " clip-rule="nonzero"/></clipPath><clipPath id="638d1f0a3a"><path d="M 100 104.003906 L 365 104.003906 L 365 107.738281 L 100 107.738281 Z M 100 104.003906 " clip-rule="nonzero"/></clipPath></defs><g clip-path="url(#9e12621f7f)"><path fill="#231f20" d="M 55.890625 29.289062 C 36.960938 29.289062 21.5625 44.695312 21.5625 63.632812 C 21.5625 71.691406 24.875 78.984375 28.113281 85.050781 C 29.277344 87.21875 30.53125 89.371094 31.851562 91.449219 C 32.316406 92.175781 32.84375 92.917969 33.398438 93.699219 C 36.113281 97.511719 39.492188 102.257812 39.695312 111.441406 L 39.695312 114.972656 C 39.695312 118.273438 42.378906 120.957031 45.679688 120.957031 L 66.097656 120.957031 C 69.398438 120.957031 72.082031 118.273438 72.082031 114.972656 L 72.082031 111.011719 L 72.085938 110.941406 C 72.394531 102.089844 75.703125 97.441406 78.359375 93.707031 C 78.917969 92.921875 79.445312 92.179688 79.914062 91.445312 C 83.214844 86.273438 85.515625 81.980469 87.15625 77.949219 C 88.289062 75.152344 89.089844 72.539062 89.601562 69.960938 C 90.007812 67.929688 90.214844 65.800781 90.214844 63.632812 C 90.214844 44.695312 74.816406 29.289062 55.890625 29.289062 Z M 66.097656 125.058594 L 45.679688 125.058594 C 40.121094 125.058594 35.597656 120.535156 35.597656 114.972656 L 35.597656 111.488281 C 35.421875 103.609375 32.695312 99.78125 30.0625 96.078125 C 29.472656 95.25 28.917969 94.472656 28.394531 93.652344 C 27.019531 91.488281 25.707031 89.246094 24.5 86.984375 C 21.023438 80.464844 17.464844 72.597656 17.464844 63.632812 C 17.464844 42.433594 34.703125 25.191406 55.890625 25.191406 C 77.074219 25.191406 94.3125 42.433594 94.3125 63.632812 C 94.3125 66.070312 94.078125 68.46875 93.621094 70.761719 C 93.058594 73.59375 92.183594 76.453125 90.949219 79.496094 C 89.214844 83.765625 86.804688 88.261719 83.371094 93.648438 C 82.84375 94.472656 82.289062 95.257812 81.699219 96.085938 C 79.121094 99.707031 76.453125 103.453125 76.179688 111.050781 L 76.179688 114.972656 C 76.179688 120.535156 71.660156 125.058594 66.097656 125.058594 " fill-opacity="1" fill-rule="nonzero"/></g><g clip-path="url(#270d0d10b0)"><path fill="#231f20" d="M 42.734375 145.621094 L 50.613281 149.425781 C 53.527344 150.832031 58.25 150.832031 61.167969 149.425781 L 69.042969 145.621094 L 42.734375 145.621094 " fill-opacity="1" fill-rule="nonzero"/></g><path fill="#231f20" d="M 70.648438 144.277344 C 70.648438 145.40625 69.734375 146.328125 68.597656 146.328125 L 43.183594 146.328125 C 42.046875 146.328125 41.128906 145.40625 41.128906 144.277344 C 41.128906 143.140625 42.046875 142.222656 43.183594 142.222656 L 68.597656 142.222656 C 69.734375 142.222656 70.648438 143.140625 70.648438 144.277344 " fill-opacity="1" fill-rule="nonzero"/><path fill="#231f20" d="M 72.351562 138.367188 C 72.351562 139.5 71.429688 140.421875 70.300781 140.421875 L 41.480469 140.421875 C 40.347656 140.421875 39.425781 139.5 39.425781 138.367188 C 39.425781 137.230469 40.347656 136.3125 41.480469 136.3125 L 70.300781 136.3125 C 71.429688 136.3125 72.351562 137.230469 72.351562 138.367188 " fill-opacity="1" fill-rule="nonzero"/><path fill="#231f20" d="M 72.351562 132.457031 C 72.351562 133.59375 71.429688 134.515625 70.300781 134.515625 L 41.480469 134.515625 C 40.347656 134.515625 39.425781 133.59375 39.425781 132.457031 C 39.425781 131.328125 40.347656 130.40625 41.480469 130.40625 L 70.300781 130.40625 C 71.429688 130.40625 72.351562 131.328125 72.351562 132.457031 " fill-opacity="1" fill-rule="nonzero"/><path fill="#231f20" d="M 74.136719 126.554688 C 74.136719 127.6875 73.21875 128.605469 72.085938 128.605469 L 39.691406 128.605469 C 38.5625 128.605469 37.640625 127.6875 37.640625 126.554688 C 37.640625 125.421875 38.5625 124.5 39.691406 124.5 L 72.085938 124.5 C 73.21875 124.5 74.136719 125.421875 74.136719 126.554688 " fill-opacity="1" fill-rule="nonzero"/><g clip-path="url(#f071d7a503)"><path fill="#010101" d="M 77.417969 67.246094 C 77.417969 56.886719 69.445312 50.175781 57.078125 50.175781 L 35.632812 50.175781 L 35.632812 94.601562 L 52.320312 94.601562 L 52.320312 84.085938 L 54.171875 84.085938 L 61.292969 94.601562 L 79.472656 94.601562 L 70.089844 80.820312 C 74.847656 77.890625 77.417969 73.132812 77.417969 67.246094 Z M 52.320312 63.621094 L 56.179688 63.621094 C 58.082031 63.621094 60.625 64.007812 60.625 67.246094 C 60.625 70.484375 58.082031 70.871094 56.179688 70.871094 L 52.320312 70.871094 Z M 52.320312 63.621094 " fill-opacity="1" fill-rule="nonzero"/></g><g clip-path="url(#0b7932c48d)"><path fill="#ffffff" d="M 52.175781 59.578125 L 67.429688 59.578125 L 55.085938 77.539062 L 67.429688 78.003906 L 49.265625 99.460938 L 51.945312 82.902344 L 42.742188 83.601562 L 52.175781 59.578125 " fill-opacity="1" fill-rule="nonzero"/></g><g clip-path="url(#638d1f0a3a)"><path fill="#232323" d="M 364.511719 105.230469 C 364.421875 105.757812 362.71875 105.527344 361.863281 105.511719 C 360.582031 105.703125 362.753906 106.136719 361.0625 106.238281 C 356.351562 106.09375 351.964844 106.1875 347.164062 106.421875 C 345.417969 106.359375 348.765625 106.296875 347.332031 106.601562 C 345.394531 106.6875 341.484375 106.472656 337.902344 106.308594 C 333.828125 106.636719 327.585938 106.878906 322.433594 106.738281 C 322.183594 107.003906 323.808594 106.832031 324.320312 107.042969 C 308.460938 107.078125 291.914062 107.027344 274.808594 107.136719 C 272.753906 107.007812 270.742188 106.90625 268.863281 106.945312 C 266.445312 106.914062 264.183594 107.128906 261.832031 107.378906 C 257.402344 107.167969 252.769531 107.03125 248.082031 107.050781 C 239.878906 107.027344 231.332031 107.308594 222.796875 107.476562 C 218.078125 107.296875 213.332031 107.273438 209.316406 107.03125 C 208.554688 107.3125 207.714844 107.230469 207.195312 107.578125 C 206.832031 107.285156 206.183594 107.484375 206.046875 107.535156 C 205.574219 107.484375 204.84375 107.238281 204.027344 106.941406 C 202.398438 107.183594 199.054688 107.390625 196.835938 107.285156 C 193.589844 107.25 190.417969 107.058594 186.234375 106.886719 C 178.496094 107.011719 169.972656 106.902344 162.488281 107.144531 C 156.925781 107.078125 151.308594 107.316406 145.90625 107.265625 C 137.890625 107.269531 130.144531 107.175781 122.742188 107.554688 C 120.0625 107.453125 117.253906 107.71875 114.613281 107.570312 C 111.613281 107.679688 109.28125 107.214844 106.09375 107.46875 C 103.507812 107.191406 103.453125 107.050781 100.1875 107.550781 C 100.136719 106.476562 103.097656 106.597656 104.464844 106.414062 C 105.433594 105.925781 106.625 105.675781 107.6875 105.6875 C 113.28125 105.324219 117.738281 105.15625 123.242188 104.871094 C 126.835938 104.699219 128.050781 104.730469 132.371094 104.765625 C 133.566406 104.8125 134.449219 104.640625 135.945312 104.582031 C 139.5 104.574219 143.609375 104.835938 147.441406 104.605469 C 149.433594 104.796875 151.671875 104.617188 153.894531 104.289062 C 155.042969 104.546875 156.359375 104.671875 157.578125 104.898438 C 158.277344 104.617188 158.785156 104.441406 159.226562 104.1875 C 161.25 104.421875 163.019531 104.5625 164.816406 104.589844 C 166.800781 104.492188 168.839844 104.304688 170.90625 104.105469 C 174.957031 104.246094 179.105469 104.46875 183.296875 104.5625 C 192.265625 104.527344 201.742188 104.441406 211.046875 104.339844 C 225.589844 104.550781 240.566406 104.296875 254.964844 104.203125 C 259.644531 104.128906 264.625 104.261719 269.371094 104.484375 C 280.394531 103.996094 293.433594 104.269531 305.289062 104.429688 C 320.746094 104.105469 336.949219 104.398438 351.105469 104.777344 C 356.457031 104.996094 361.019531 104.910156 364.511719 105.230469 " fill-opacity="1" fill-rule="evenodd"/></g><g fill="#000000" fill-opacity="1"><g transform="translate(109.977635, 81.114275)"><g><path d="M 38.265625 -12.75 L 51.328125 1.140625 L 32.46875 1.140625 L 23.140625 -8.703125 L 18.796875 -8.703125 L 18.796875 1.140625 L 4.65625 1.140625 L 4.65625 -58.0625 L 25.59375 -58.0625 C 32.519531 -58.0625 38.398438 -55.769531 43.234375 -51.1875 C 47.972656 -46.601562 50.34375 -41.050781 50.34375 -34.53125 C 50.34375 -29.175781 49.144531 -24.59375 46.75 -20.78125 C 44.71875 -17.414062 41.890625 -14.738281 38.265625 -12.75 Z M 24.140625 -11 L 33.453125 -1.140625 L 46.0625 -1.140625 L 34.453125 -13.515625 L 35.90625 -14.203125 C 39.726562 -15.941406 42.707031 -18.539062 44.84375 -22 C 46.976562 -25.507812 48.046875 -29.6875 48.046875 -34.53125 C 48.046875 -40.382812 45.910156 -45.375 41.640625 -49.5 C 37.304688 -53.675781 31.957031 -55.765625 25.59375 -55.765625 L 6.953125 -55.765625 L 6.953125 -1.140625 L 16.5 -1.140625 L 16.5 -11 Z M 22.53125 -19.40625 L 16.5 -19.40625 L 16.5 -47.359375 L 24.828125 -47.359375 C 29.054688 -47.359375 32.390625 -46.007812 34.828125 -43.3125 C 37.078125 -40.769531 38.203125 -37.535156 38.203125 -33.609375 C 38.203125 -29.023438 36.847656 -25.507812 34.140625 -23.0625 C 31.390625 -20.625 27.519531 -19.40625 22.53125 -19.40625 Z M 18.796875 -45.078125 L 18.796875 -21.6875 L 22.53125 -21.6875 C 27.007812 -21.6875 30.375 -22.707031 32.625 -24.75 C 34.8125 -26.738281 35.90625 -29.691406 35.90625 -33.609375 C 35.90625 -36.972656 34.988281 -39.695312 33.15625 -41.78125 C 31.21875 -43.976562 28.441406 -45.078125 24.828125 -45.078125 Z M 18.796875 -45.078125 "/></g></g></g><g fill="#000000" fill-opacity="1"><g transform="translate(157.253513, 81.114275)"><g><path d="M 18.796875 -58.0625 L 18.796875 1.140625 L 4.65625 1.140625 L 4.65625 -58.0625 Z M 6.953125 -55.765625 L 6.953125 -1.140625 L 16.5 -1.140625 L 16.5 -55.765625 Z M 6.953125 -55.765625 "/></g></g></g><g fill="#000000" fill-opacity="1"><g transform="translate(175.659195, 81.114275)"><g><path d="M 21.078125 2.140625 C 17.566406 2.140625 14.207031 1.476562 11 0.15625 C 7.582031 -1.320312 4.523438 -3.5625 1.828125 -6.5625 L 1 -7.484375 L 12.6875 -16.125 L 13.375 -15.203125 C 15.25 -12.753906 17.816406 -11.53125 21.078125 -11.53125 C 22.710938 -11.53125 24.085938 -12.078125 25.203125 -13.171875 C 26.328125 -14.265625 26.890625 -15.601562 26.890625 -17.1875 C 26.890625 -21.207031 24.367188 -23.5 19.328125 -24.0625 C 14.128906 -24.675781 9.953125 -26.535156 6.796875 -29.640625 C 3.640625 -32.796875 2.0625 -36.742188 2.0625 -41.484375 C 2.0625 -46.367188 4 -50.59375 7.875 -54.15625 C 9.601562 -55.738281 11.507812 -56.9375 13.59375 -57.75 C 15.738281 -58.613281 17.851562 -59.046875 19.9375 -59.046875 C 23.039062 -59.046875 25.914062 -58.4375 28.5625 -57.21875 C 31.46875 -55.894531 33.992188 -53.929688 36.140625 -51.328125 L 36.96875 -50.34375 L 25.8125 -42.25 L 25.125 -43.015625 C 23.5 -44.640625 21.769531 -45.453125 19.9375 -45.453125 C 18.664062 -45.453125 17.660156 -45.109375 16.921875 -44.421875 C 16.179688 -43.734375 15.8125 -42.78125 15.8125 -41.5625 C 15.8125 -40.488281 16.242188 -39.617188 17.109375 -38.953125 C 18.285156 -38.035156 20.144531 -37.503906 22.6875 -37.359375 C 27.976562 -37.046875 32.382812 -35.210938 35.90625 -31.859375 C 39.625 -28.285156 41.484375 -23.675781 41.484375 -18.03125 C 41.484375 -12.269531 39.394531 -7.429688 35.21875 -3.515625 C 33.28125 -1.679688 31.113281 -0.304688 28.71875 0.609375 C 26.226562 1.628906 23.679688 2.140625 21.078125 2.140625 Z M 12.296875 -12.984375 L 4.4375 -7.1875 C 6.675781 -4.894531 9.171875 -3.160156 11.921875 -1.984375 C 14.722656 -0.765625 17.773438 -0.15625 21.078125 -0.15625 C 25.867188 -0.15625 30.070312 -1.832031 33.6875 -5.1875 C 37.351562 -8.707031 39.1875 -12.988281 39.1875 -18.03125 C 39.1875 -23.019531 37.554688 -27.066406 34.296875 -30.171875 C 31.191406 -33.128906 27.269531 -34.757812 22.53125 -35.0625 C 19.582031 -35.21875 17.289062 -35.90625 15.65625 -37.125 C 14.226562 -38.300781 13.515625 -39.78125 13.515625 -41.5625 C 13.515625 -43.394531 14.113281 -44.882812 15.3125 -46.03125 C 16.507812 -47.175781 18.050781 -47.75 19.9375 -47.75 C 22.070312 -47.75 24.109375 -46.90625 26.046875 -45.21875 L 33.609375 -50.71875 C 29.835938 -54.75 25.28125 -56.765625 19.9375 -56.765625 C 16.0625 -56.765625 12.546875 -55.335938 9.390625 -52.484375 C 6.035156 -49.421875 4.359375 -45.753906 4.359375 -41.484375 C 4.359375 -37.359375 5.71875 -33.929688 8.4375 -31.203125 C 11.164062 -28.484375 14.894531 -26.867188 19.625 -26.359375 C 22.6875 -25.953125 25.003906 -25.007812 26.578125 -23.53125 C 28.316406 -21.894531 29.1875 -19.78125 29.1875 -17.1875 C 29.1875 -15 28.394531 -13.128906 26.8125 -11.578125 C 25.226562 -10.023438 23.316406 -9.25 21.078125 -9.25 C 19.097656 -9.25 17.421875 -9.550781 16.046875 -10.15625 C 14.671875 -10.769531 13.421875 -11.710938 12.296875 -12.984375 Z M 12.296875 -12.984375 "/></g></g></g><g fill="#000000" fill-opacity="1"><g transform="translate(213.846307, 81.114275)"><g><path d="M 21.078125 2.140625 C 17.566406 2.140625 14.207031 1.476562 11 0.15625 C 7.582031 -1.320312 4.523438 -3.5625 1.828125 -6.5625 L 1 -7.484375 L 12.6875 -16.125 L 13.375 -15.203125 C 15.25 -12.753906 17.816406 -11.53125 21.078125 -11.53125 C 22.710938 -11.53125 24.085938 -12.078125 25.203125 -13.171875 C 26.328125 -14.265625 26.890625 -15.601562 26.890625 -17.1875 C 26.890625 -21.207031 24.367188 -23.5 19.328125 -24.0625 C 14.128906 -24.675781 9.953125 -26.535156 6.796875 -29.640625 C 3.640625 -32.796875 2.0625 -36.742188 2.0625 -41.484375 C 2.0625 -46.367188 4 -50.59375 7.875 -54.15625 C 9.601562 -55.738281 11.507812 -56.9375 13.59375 -57.75 C 15.738281 -58.613281 17.851562 -59.046875 19.9375 -59.046875 C 23.039062 -59.046875 25.914062 -58.4375 28.5625 -57.21875 C 31.46875 -55.894531 33.992188 -53.929688 36.140625 -51.328125 L 36.96875 -50.34375 L 25.8125 -42.25 L 25.125 -43.015625 C 23.5 -44.640625 21.769531 -45.453125 19.9375 -45.453125 C 18.664062 -45.453125 17.660156 -45.109375 16.921875 -44.421875 C 16.179688 -43.734375 15.8125 -42.78125 15.8125 -41.5625 C 15.8125 -40.488281 16.242188 -39.617188 17.109375 -38.953125 C 18.285156 -38.035156 20.144531 -37.503906 22.6875 -37.359375 C 27.976562 -37.046875 32.382812 -35.210938 35.90625 -31.859375 C 39.625 -28.285156 41.484375 -23.675781 41.484375 -18.03125 C 41.484375 -12.269531 39.394531 -7.429688 35.21875 -3.515625 C 33.28125 -1.679688 31.113281 -0.304688 28.71875 0.609375 C 26.226562 1.628906 23.679688 2.140625 21.078125 2.140625 Z M 12.296875 -12.984375 L 4.4375 -7.1875 C 6.675781 -4.894531 9.171875 -3.160156 11.921875 -1.984375 C 14.722656 -0.765625 17.773438 -0.15625 21.078125 -0.15625 C 25.867188 -0.15625 30.070312 -1.832031 33.6875 -5.1875 C 37.351562 -8.707031 39.1875 -12.988281 39.1875 -18.03125 C 39.1875 -23.019531 37.554688 -27.066406 34.296875 -30.171875 C 31.191406 -33.128906 27.269531 -34.757812 22.53125 -35.0625 C 19.582031 -35.21875 17.289062 -35.90625 15.65625 -37.125 C 14.226562 -38.300781 13.515625 -39.78125 13.515625 -41.5625 C 13.515625 -43.394531 14.113281 -44.882812 15.3125 -46.03125 C 16.507812 -47.175781 18.050781 -47.75 19.9375 -47.75 C 22.070312 -47.75 24.109375 -46.90625 26.046875 -45.21875 L 33.609375 -50.71875 C 29.835938 -54.75 25.28125 -56.765625 19.9375 -56.765625 C 16.0625 -56.765625 12.546875 -55.335938 9.390625 -52.484375 C 6.035156 -49.421875 4.359375 -45.753906 4.359375 -41.484375 C 4.359375 -37.359375 5.71875 -33.929688 8.4375 -31.203125 C 11.164062 -28.484375 14.894531 -26.867188 19.625 -26.359375 C 22.6875 -25.953125 25.003906 -25.007812 26.578125 -23.53125 C 28.316406 -21.894531 29.1875 -19.78125 29.1875 -17.1875 C 29.1875 -15 28.394531 -13.128906 26.8125 -11.578125 C 25.226562 -10.023438 23.316406 -9.25 21.078125 -9.25 C 19.097656 -9.25 17.421875 -9.550781 16.046875 -10.15625 C 14.671875 -10.769531 13.421875 -11.710938 12.296875 -12.984375 Z M 12.296875 -12.984375 "/></g></g></g><g fill="#000000" fill-opacity="1"><g transform="translate(252.033419, 81.114275)"><g><path d="M 32.921875 2.140625 C 28.796875 2.140625 24.820312 1.320312 21 -0.3125 C 17.382812 -1.832031 14.128906 -3.992188 11.234375 -6.796875 C 8.378906 -9.648438 6.1875 -12.910156 4.65625 -16.578125 C 3.082031 -20.441406 2.296875 -24.414062 2.296875 -28.5 C 2.296875 -32.519531 3.082031 -36.488281 4.65625 -40.40625 C 6.1875 -44.019531 8.378906 -47.253906 11.234375 -50.109375 C 14.035156 -52.910156 17.269531 -55.078125 20.9375 -56.609375 C 24.75 -58.234375 28.71875 -59.046875 32.84375 -59.046875 C 36.96875 -59.046875 40.941406 -58.234375 44.765625 -56.609375 C 48.535156 -55.023438 51.796875 -52.859375 54.546875 -50.109375 C 57.296875 -47.359375 59.457031 -44.125 61.03125 -40.40625 C 62.664062 -36.539062 63.484375 -32.570312 63.484375 -28.5 C 63.484375 -24.375 62.664062 -20.398438 61.03125 -16.578125 C 59.457031 -12.804688 57.296875 -9.546875 54.546875 -6.796875 C 51.640625 -3.992188 48.40625 -1.832031 44.84375 -0.3125 C 40.96875 1.320312 36.992188 2.140625 32.921875 2.140625 Z M 32.84375 -56.765625 C 25 -56.765625 18.328125 -54.015625 12.828125 -48.515625 C 7.328125 -43.015625 4.578125 -36.34375 4.578125 -28.5 C 4.578125 -20.65625 7.328125 -13.984375 12.828125 -8.484375 C 18.378906 -2.929688 25.078125 -0.15625 32.921875 -0.15625 C 40.710938 -0.15625 47.382812 -2.929688 52.9375 -8.484375 C 55.488281 -11.078125 57.5 -14.082031 58.96875 -17.5 C 60.445312 -21.007812 61.1875 -24.675781 61.1875 -28.5 C 61.1875 -36.238281 58.4375 -42.910156 52.9375 -48.515625 C 47.4375 -54.015625 40.738281 -56.765625 32.84375 -56.765625 Z M 32.921875 -9.25 C 27.722656 -9.25 23.34375 -11.101562 19.78125 -14.8125 C 16.21875 -18.53125 14.4375 -23.09375 14.4375 -28.5 C 14.4375 -33.789062 16.191406 -38.320312 19.703125 -42.09375 C 23.316406 -45.863281 27.695312 -47.75 32.84375 -47.75 C 37.988281 -47.75 42.367188 -45.863281 45.984375 -42.09375 C 49.546875 -38.269531 51.328125 -33.738281 51.328125 -28.5 C 51.328125 -23.09375 49.546875 -18.53125 45.984375 -14.8125 C 42.421875 -11.101562 38.066406 -9.25 32.921875 -9.25 Z M 44.3125 -40.484375 C 41.15625 -43.796875 37.332031 -45.453125 32.84375 -45.453125 C 28.363281 -45.453125 24.546875 -43.796875 21.390625 -40.484375 C 18.285156 -37.222656 16.734375 -33.226562 16.734375 -28.5 C 16.734375 -23.707031 18.285156 -19.679688 21.390625 -16.421875 C 24.546875 -13.160156 28.390625 -11.53125 32.921875 -11.53125 C 37.398438 -11.53125 41.195312 -13.160156 44.3125 -16.421875 C 47.46875 -19.679688 49.046875 -23.707031 49.046875 -28.5 C 49.046875 -33.175781 47.46875 -37.171875 44.3125 -40.484375 Z M 44.3125 -40.484375 "/></g></g></g><g fill="#000000" fill-opacity="1"><g transform="translate(312.751497, 81.114275)"><g><path d="M 41.703125 -11.84375 L 41.703125 1.140625 L 4.65625 1.140625 L 4.65625 -58.0625 L 18.796875 -58.0625 L 18.796875 -11.84375 Z M 6.953125 -55.765625 L 6.953125 -1.140625 L 39.421875 -1.140625 L 39.421875 -9.546875 L 16.5 -9.546875 L 16.5 -55.765625 Z M 6.953125 -55.765625 "/></g></g></g><g fill="#000000" fill-opacity="1"><g transform="translate(83.879799, 137.207831)"><g><path d="M 3.730469 -4.925781 C 4.808594 -4.808594 5.402344 -4.253906 5.402344 -3.359375 C 5.402344 -2.640625 4.808594 -2.03125 4.046875 -2.03125 C 3.386719 -2.03125 2.867188 -2.195312 2.359375 -2.835938 L 0.449219 -1.433594 C 1.507812 -0.269531 2.777344 0.195312 4.046875 0.195312 C 6 0.195312 7.808594 -1.359375 7.808594 -3.523438 C 7.808594 -5.671875 6.238281 -6.957031 4.34375 -7.074219 C 3.164062 -7.148438 2.792969 -7.613281 2.792969 -8.121094 C 2.792969 -8.734375 3.210938 -9.105469 3.820312 -9.105469 C 4.210938 -9.105469 4.703125 -8.867188 5 -8.554688 L 6.820312 -9.882812 C 5.972656 -10.898438 4.925781 -11.316406 3.820312 -11.316406 C 2.285156 -11.316406 0.550781 -9.988281 0.550781 -8.105469 C 0.550781 -6.359375 1.804688 -5.148438 3.730469 -4.925781 Z M 3.730469 -4.925781 "/></g></g></g><g fill="#000000" fill-opacity="1"><g transform="translate(91.194354, 137.207831)"><g><path d="M 6.359375 0.195312 C 9.539062 0.195312 12.105469 -2.386719 12.105469 -5.566406 C 12.105469 -8.746094 9.539062 -11.316406 6.34375 -11.316406 C 3.164062 -11.316406 0.597656 -8.746094 0.597656 -5.566406 C 0.597656 -2.386719 3.164062 0.195312 6.359375 0.195312 Z M 6.34375 -9.105469 C 8.226562 -9.105469 9.734375 -7.523438 9.734375 -5.566406 C 9.734375 -3.582031 8.238281 -2.03125 6.359375 -2.03125 C 4.449219 -2.03125 2.96875 -3.582031 2.96875 -5.566406 C 2.96875 -7.523438 4.449219 -9.105469 6.34375 -9.105469 Z M 6.34375 -9.105469 "/></g></g></g><g fill="#000000" fill-opacity="1"><g transform="translate(102.912578, 137.207831)"><g><path d="M 1.058594 -11.121094 L 1.058594 0 L 7.851562 0 L 7.851562 -2.089844 L 3.375 -2.089844 L 3.375 -11.121094 Z M 1.058594 -11.121094 "/></g></g></g><g fill="#000000" fill-opacity="1"><g transform="translate(110.003215, 137.207831)"><g><path d="M 5.761719 0.195312 C 8.71875 0.195312 10.523438 -1.714844 10.523438 -4.957031 L 10.523438 -11.121094 L 8.238281 -11.121094 L 8.238281 -4.761719 C 8.238281 -3.089844 7.492188 -2.03125 5.761719 -2.03125 C 4.121094 -2.03125 3.269531 -3.015625 3.269531 -4.761719 L 3.269531 -11.121094 L 0.957031 -11.121094 L 0.957031 -5.148438 C 0.957031 -2.058594 2.507812 0.195312 5.761719 0.195312 Z M 5.761719 0.195312 "/></g></g></g><g fill="#000000" fill-opacity="1"><g transform="translate(120.497368, 137.207831)"><g><path d="M 3.925781 -2.089844 L 9.761719 -11.121094 L 0.640625 -11.121094 L 0.640625 -9.03125 L 5.835938 -9.03125 L 0.0742188 0 L 9.957031 0 L 9.957031 -2.089844 Z M 3.925781 -2.089844 "/></g></g></g><g fill="#000000" fill-opacity="1"><g transform="translate(129.692805, 137.207831)"><g><path d="M 3.375 -11.121094 L 1.058594 -11.121094 L 1.058594 0 L 3.375 0 Z M 3.375 -11.121094 "/></g></g></g><g fill="#000000" fill-opacity="1"><g transform="translate(133.141077, 137.207831)"><g><path d="M 6.359375 0.195312 C 9.539062 0.195312 12.105469 -2.386719 12.105469 -5.566406 C 12.105469 -8.746094 9.539062 -11.316406 6.34375 -11.316406 C 3.164062 -11.316406 0.597656 -8.746094 0.597656 -5.566406 C 0.597656 -2.386719 3.164062 0.195312 6.359375 0.195312 Z M 6.34375 -9.105469 C 8.226562 -9.105469 9.734375 -7.523438 9.734375 -5.566406 C 9.734375 -3.582031 8.238281 -2.03125 6.359375 -2.03125 C 4.449219 -2.03125 2.96875 -3.582031 2.96875 -5.566406 C 2.96875 -7.523438 4.449219 -9.105469 6.34375 -9.105469 Z M 6.34375 -9.105469 "/></g></g></g><g fill="#000000" fill-opacity="1"><g transform="translate(144.859299, 137.207831)"><g><path d="M 8.972656 -4.6875 L 1.058594 -11.332031 L 1.058594 0 L 3.375 0 L 3.375 -6.390625 L 11.285156 0.195312 L 11.285156 -11.121094 L 8.972656 -11.121094 Z M 8.972656 -4.6875 "/></g></g></g><g fill="#000000" fill-opacity="1"><g transform="translate(156.219253, 137.207831)"><g><path d="M 3.375 -11.121094 L 1.058594 -11.121094 L 1.058594 0 L 3.375 0 Z M 3.375 -11.121094 "/></g></g></g><g fill="#000000" fill-opacity="1"><g transform="translate(159.667527, 137.207831)"><g/></g></g><g fill="#000000" fill-opacity="1"><g transform="translate(164.966846, 137.207831)"><g><path d="M 3.375 0 L 3.375 -1.6875 L 4.703125 -1.6875 C 7.492188 -1.6875 9.507812 -3.792969 9.507812 -6.644531 C 9.507812 -8.898438 7.582031 -11.121094 4.851562 -11.121094 L 1.058594 -11.121094 L 1.058594 0 Z M 3.375 -3.792969 L 3.375 -9.03125 L 4.777344 -9.03125 C 6.285156 -9.03125 7.136719 -7.703125 7.136719 -6.402344 C 7.136719 -4.972656 6.253906 -3.792969 4.640625 -3.792969 Z M 3.375 -3.792969 "/></g></g></g><g fill="#000000" fill-opacity="1"><g transform="translate(173.938369, 137.207831)"><g><path d="M 7.957031 0 L 7.957031 -2.089844 L 3.375 -2.089844 L 3.375 -4.882812 L 7.554688 -4.882812 L 7.554688 -6.957031 L 3.375 -6.957031 L 3.375 -9.03125 L 6.972656 -9.03125 L 6.972656 -11.121094 L 1.058594 -11.121094 L 1.058594 0 Z M 7.957031 0 "/></g></g></g><g fill="#000000" fill-opacity="1"><g transform="translate(181.506695, 137.207831)"><g><path d="M 4.539062 -1.925781 L 6.359375 0 L 9.433594 0 L 7.03125 -2.566406 C 8.582031 -3.285156 9.539062 -4.746094 9.539062 -6.746094 C 9.539062 -9.164062 7.539062 -11.121094 4.925781 -11.121094 L 1.058594 -11.121094 L 1.058594 0 L 3.375 0 L 3.375 -1.925781 Z M 3.375 -4.015625 L 3.375 -9.03125 L 4.777344 -9.03125 C 6.359375 -9.03125 7.164062 -7.925781 7.164062 -6.566406 C 7.164062 -4.910156 6.164062 -4.015625 4.328125 -4.015625 Z M 3.375 -4.015625 "/></g></g></g><g fill="#000000" fill-opacity="1"><g transform="translate(190.597642, 137.207831)"><g/></g></g><g fill="#000000" fill-opacity="1"><g transform="translate(195.896961, 137.207831)"><g><path d="M 3.375 -11.121094 L 1.058594 -11.121094 L 1.058594 0 L 3.375 0 Z M 3.375 -11.121094 "/></g></g></g><g fill="#000000" fill-opacity="1"><g transform="translate(199.345235, 137.207831)"><g><path d="M 1.058594 -11.121094 L 1.058594 0 L 7.851562 0 L 7.851562 -2.089844 L 3.375 -2.089844 L 3.375 -11.121094 Z M 1.058594 -11.121094 "/></g></g></g><g fill="#000000" fill-opacity="1"><g transform="translate(206.435875, 137.207831)"><g/></g></g><g fill="#000000" fill-opacity="1"><g transform="translate(211.735194, 137.207831)"><g><path d="M 4.539062 -1.925781 L 6.359375 0 L 9.433594 0 L 7.03125 -2.566406 C 8.582031 -3.285156 9.539062 -4.746094 9.539062 -6.746094 C 9.539062 -9.164062 7.539062 -11.121094 4.925781 -11.121094 L 1.058594 -11.121094 L 1.058594 0 L 3.375 0 L 3.375 -1.925781 Z M 3.375 -4.015625 L 3.375 -9.03125 L 4.777344 -9.03125 C 6.359375 -9.03125 7.164062 -7.925781 7.164062 -6.566406 C 7.164062 -4.910156 6.164062 -4.015625 4.328125 -4.015625 Z M 3.375 -4.015625 "/></g></g></g><g fill="#000000" fill-opacity="1"><g transform="translate(220.826141, 137.207831)"><g><path d="M 3.375 -11.121094 L 1.058594 -11.121094 L 1.058594 0 L 3.375 0 Z M 3.375 -11.121094 "/></g></g></g><g fill="#000000" fill-opacity="1"><g transform="translate(224.274415, 137.207831)"><g><path d="M 3.730469 -4.925781 C 4.808594 -4.808594 5.402344 -4.253906 5.402344 -3.359375 C 5.402344 -2.640625 4.808594 -2.03125 4.046875 -2.03125 C 3.386719 -2.03125 2.867188 -2.195312 2.359375 -2.835938 L 0.449219 -1.433594 C 1.507812 -0.269531 2.777344 0.195312 4.046875 0.195312 C 6 0.195312 7.808594 -1.359375 7.808594 -3.523438 C 7.808594 -5.671875 6.238281 -6.957031 4.34375 -7.074219 C 3.164062 -7.148438 2.792969 -7.613281 2.792969 -8.121094 C 2.792969 -8.734375 3.210938 -9.105469 3.820312 -9.105469 C 4.210938 -9.105469 4.703125 -8.867188 5 -8.554688 L 6.820312 -9.882812 C 5.972656 -10.898438 4.925781 -11.316406 3.820312 -11.316406 C 2.285156 -11.316406 0.550781 -9.988281 0.550781 -8.105469 C 0.550781 -6.359375 1.804688 -5.148438 3.730469 -4.925781 Z M 3.730469 -4.925781 "/></g></g></g><g fill="#000000" fill-opacity="1"><g transform="translate(231.588973, 137.207831)"><g><path d="M 3.375 0 L 3.375 -1.6875 L 4.703125 -1.6875 C 7.492188 -1.6875 9.507812 -3.792969 9.507812 -6.644531 C 9.507812 -8.898438 7.582031 -11.121094 4.851562 -11.121094 L 1.058594 -11.121094 L 1.058594 0 Z M 3.375 -3.792969 L 3.375 -9.03125 L 4.777344 -9.03125 C 6.285156 -9.03125 7.136719 -7.703125 7.136719 -6.402344 C 7.136719 -4.972656 6.253906 -3.792969 4.640625 -3.792969 Z M 3.375 -3.792969 "/></g></g></g><g fill="#000000" fill-opacity="1"><g transform="translate(240.560496, 137.207831)"><g><path d="M 9.136719 0 L 11.660156 0 L 5.777344 -11.316406 L -0.0898438 0 L 2.300781 0 L 3.015625 -1.492188 L 8.40625 -1.492188 Z M 5.6875 -7.046875 L 7.390625 -3.582031 L 4.015625 -3.582031 Z M 5.6875 -7.046875 "/></g></g></g><g fill="#000000" fill-opacity="1"><g transform="translate(251.144214, 137.207831)"><g><path d="M 4.539062 -1.925781 L 6.359375 0 L 9.433594 0 L 7.03125 -2.566406 C 8.582031 -3.285156 9.539062 -4.746094 9.539062 -6.746094 C 9.539062 -9.164062 7.539062 -11.121094 4.925781 -11.121094 L 1.058594 -11.121094 L 1.058594 0 L 3.375 0 L 3.375 -1.925781 Z M 3.375 -4.015625 L 3.375 -9.03125 L 4.777344 -9.03125 C 6.359375 -9.03125 7.164062 -7.925781 7.164062 -6.566406 C 7.164062 -4.910156 6.164062 -4.015625 4.328125 -4.015625 Z M 3.375 -4.015625 "/></g></g></g><g fill="#000000" fill-opacity="1"><g transform="translate(260.235161, 137.207831)"><g><path d="M 6.984375 -6.820312 L 1.058594 -11.316406 L 1.058594 0 L 3.375 0 L 3.375 -6.703125 L 6.984375 -4.089844 L 10.597656 -6.703125 L 10.597656 0 L 12.898438 0 L 12.898438 -11.316406 Z M 6.984375 -6.820312 "/></g></g></g><g fill="#000000" fill-opacity="1"><g transform="translate(273.222241, 137.207831)"><g><path d="M 3.375 -11.121094 L 1.058594 -11.121094 L 1.058594 0 L 3.375 0 Z M 3.375 -11.121094 "/></g></g></g><g fill="#000000" fill-opacity="1"><g transform="translate(276.670504, 137.207831)"><g><path d="M 6.359375 0.195312 C 9.539062 0.195312 12.105469 -2.386719 12.105469 -5.566406 C 12.105469 -8.746094 9.539062 -11.316406 6.34375 -11.316406 C 3.164062 -11.316406 0.597656 -8.746094 0.597656 -5.566406 C 0.597656 -2.386719 3.164062 0.195312 6.359375 0.195312 Z M 6.34375 -9.105469 C 8.226562 -9.105469 9.734375 -7.523438 9.734375 -5.566406 C 9.734375 -3.582031 8.238281 -2.03125 6.359375 -2.03125 C 4.449219 -2.03125 2.96875 -3.582031 2.96875 -5.566406 C 2.96875 -7.523438 4.449219 -9.105469 6.34375 -9.105469 Z M 6.34375 -9.105469 "/></g></g></g><g fill="#000000" fill-opacity="1"><g transform="translate(288.38872, 137.207831)"><g/></g></g><g fill="#000000" fill-opacity="1"><g transform="translate(293.688039, 137.207831)"><g><path d="M 7.957031 0 L 7.957031 -2.089844 L 3.375 -2.089844 L 3.375 -4.882812 L 7.554688 -4.882812 L 7.554688 -6.957031 L 3.375 -6.957031 L 3.375 -9.03125 L 6.972656 -9.03125 L 6.972656 -11.121094 L 1.058594 -11.121094 L 1.058594 0 Z M 7.957031 0 "/></g></g></g><g fill="#000000" fill-opacity="1"><g transform="translate(301.256353, 137.207831)"><g><path d="M 8.972656 -4.6875 L 1.058594 -11.332031 L 1.058594 0 L 3.375 0 L 3.375 -6.390625 L 11.285156 0.195312 L 11.285156 -11.121094 L 8.972656 -11.121094 Z M 8.972656 -4.6875 "/></g></g></g><g fill="#000000" fill-opacity="1"><g transform="translate(312.616296, 137.207831)"><g><path d="M 7.957031 0 L 7.957031 -2.089844 L 3.375 -2.089844 L 3.375 -4.882812 L 7.554688 -4.882812 L 7.554688 -6.957031 L 3.375 -6.957031 L 3.375 -9.03125 L 6.972656 -9.03125 L 6.972656 -11.121094 L 1.058594 -11.121094 L 1.058594 0 Z M 7.957031 0 "/></g></g></g><g fill="#000000" fill-opacity="1"><g transform="translate(320.18461, 137.207831)"><g><path d="M 4.539062 -1.925781 L 6.359375 0 L 9.433594 0 L 7.03125 -2.566406 C 8.582031 -3.285156 9.539062 -4.746094 9.539062 -6.746094 C 9.539062 -9.164062 7.539062 -11.121094 4.925781 -11.121094 L 1.058594 -11.121094 L 1.058594 0 L 3.375 0 L 3.375 -1.925781 Z M 3.375 -4.015625 L 3.375 -9.03125 L 4.777344 -9.03125 C 6.359375 -9.03125 7.164062 -7.925781 7.164062 -6.566406 C 7.164062 -4.910156 6.164062 -4.015625 4.328125 -4.015625 Z M 3.375 -4.015625 "/></g></g></g><g fill="#000000" fill-opacity="1"><g transform="translate(329.275558, 137.207831)"><g><path d="M 12.078125 -6.074219 L 6.375 -6.074219 L 6.375 -4.015625 L 9.390625 -4.015625 C 8.898438 -2.71875 7.65625 -2.03125 6.3125 -2.03125 C 4.449219 -2.03125 2.96875 -3.597656 2.96875 -5.554688 C 2.96875 -7.523438 4.449219 -9.105469 6.3125 -9.105469 C 7.628906 -9.105469 8.777344 -8.359375 9.359375 -7.269531 L 11.210938 -8.613281 C 10.210938 -10.242188 8.375 -11.316406 6.300781 -11.316406 C 3.136719 -11.316406 0.597656 -8.734375 0.597656 -5.554688 C 0.597656 -2.375 3.136719 0.195312 6.3125 0.195312 C 9.507812 0.195312 12.078125 -2.449219 12.078125 -5.730469 Z M 12.078125 -6.074219 "/></g></g></g><g fill="#000000" fill-opacity="1"><g transform="translate(340.934073, 137.207831)"><g><path d="M 7.957031 0 L 7.957031 -2.089844 L 3.375 -2.089844 L 3.375 -4.882812 L 7.554688 -4.882812 L 7.554688 -6.957031 L 3.375 -6.957031 L 3.375 -9.03125 L 6.972656 -9.03125 L 6.972656 -11.121094 L 1.058594 -11.121094 L 1.058594 0 Z M 7.957031 0 "/></g></g></g><g fill="#000000" fill-opacity="1"><g transform="translate(348.502387, 137.207831)"><g><path d="M 5.34375 0 L 5.34375 -9.03125 L 8.269531 -9.03125 L 8.269531 -11.121094 L 0.285156 -11.121094 L 0.285156 -9.03125 L 3.03125 -9.03125 L 3.03125 0 Z M 5.34375 0 "/></g></g></g><g fill="#000000" fill-opacity="1"><g transform="translate(356.070701, 137.207831)"><g><path d="M 3.375 -11.121094 L 1.058594 -11.121094 L 1.058594 0 L 3.375 0 Z M 3.375 -11.121094 "/></g></g></g><g fill="#000000" fill-opacity="1"><g transform="translate(359.518976, 137.207831)"><g><path d="M 9.703125 -4.910156 C 9.390625 -3.238281 7.984375 -2.03125 6.3125 -2.03125 C 4.449219 -2.03125 2.96875 -3.597656 2.96875 -5.554688 C 2.96875 -7.523438 4.449219 -9.105469 6.3125 -9.105469 C 7.464844 -9.105469 8.597656 -8.523438 9.40625 -7.328125 L 11.210938 -8.613281 C 10.210938 -10.242188 8.375 -11.316406 6.300781 -11.316406 C 3.136719 -11.316406 0.597656 -8.734375 0.597656 -5.554688 C 0.597656 -2.375 3.136719 0.195312 6.3125 0.195312 C 9.269531 0.195312 11.71875 -2.058594 12.046875 -4.910156 Z M 9.703125 -4.910156 "/></g></g></g><g fill="#000000" fill-opacity="1"><g transform="translate(371.177491, 137.207831)"><g><path d="M 6.359375 0.195312 C 9.539062 0.195312 12.105469 -2.386719 12.105469 -5.566406 C 12.105469 -8.746094 9.539062 -11.316406 6.34375 -11.316406 C 3.164062 -11.316406 0.597656 -8.746094 0.597656 -5.566406 C 0.597656 -2.386719 3.164062 0.195312 6.359375 0.195312 Z M 6.34375 -9.105469 C 8.226562 -9.105469 9.734375 -7.523438 9.734375 -5.566406 C 9.734375 -3.582031 8.238281 -2.03125 6.359375 -2.03125 C 4.449219 -2.03125 2.96875 -3.582031 2.96875 -5.566406 C 2.96875 -7.523438 4.449219 -9.105469 6.34375 -9.105469 Z M 6.34375 -9.105469 "/></g></g></g></svg>